<mxfile host="app.diagrams.net" agent="Mozilla/5.0 (Windows NT 10.0; Win64; x64) AppleWebKit/537.36 (KHTML, like Gecko) Chrome/133.0.0.0 Safari/537.36" version="26.0.16">
  <diagram name="Page-1" id="Mwd-sdS5aPT-Yw2kYYVs">
    <mxGraphModel dx="1324" dy="1162" grid="1" gridSize="10" guides="1" tooltips="1" connect="1" arrows="1" fold="1" page="1" pageScale="1" pageWidth="850" pageHeight="1100" math="0" shadow="0">
      <root>
        <mxCell id="0" />
        <mxCell id="1" parent="0" />
        <mxCell id="PrTmcTb1Di3HVmhfcGkv-5" style="edgeStyle=orthogonalEdgeStyle;rounded=0;orthogonalLoop=1;jettySize=auto;html=1;" parent="1" source="PrTmcTb1Di3HVmhfcGkv-2" target="PrTmcTb1Di3HVmhfcGkv-4" edge="1">
          <mxGeometry relative="1" as="geometry" />
        </mxCell>
        <mxCell id="PrTmcTb1Di3HVmhfcGkv-2" value="Start" style="strokeWidth=2;html=1;shape=mxgraph.flowchart.start_1;whiteSpace=wrap;fillColor=#d5e8d4;strokeColor=#82b366;" parent="1" vertex="1">
          <mxGeometry x="120" y="150" width="80" height="50" as="geometry" />
        </mxCell>
        <mxCell id="PrTmcTb1Di3HVmhfcGkv-8" style="edgeStyle=orthogonalEdgeStyle;rounded=0;orthogonalLoop=1;jettySize=auto;html=1;" parent="1" source="PrTmcTb1Di3HVmhfcGkv-4" target="PrTmcTb1Di3HVmhfcGkv-7" edge="1">
          <mxGeometry relative="1" as="geometry" />
        </mxCell>
        <mxCell id="PrTmcTb1Di3HVmhfcGkv-4" value="Navigate to the library screen" style="rounded=1;whiteSpace=wrap;html=1;absoluteArcSize=1;arcSize=14;strokeWidth=2;fillColor=#dae8fc;strokeColor=#6c8ebf;" parent="1" vertex="1">
          <mxGeometry x="107.5" y="240" width="105" height="70" as="geometry" />
        </mxCell>
        <mxCell id="PrTmcTb1Di3HVmhfcGkv-10" style="edgeStyle=orthogonalEdgeStyle;rounded=0;orthogonalLoop=1;jettySize=auto;html=1;" parent="1" source="PrTmcTb1Di3HVmhfcGkv-7" target="PrTmcTb1Di3HVmhfcGkv-9" edge="1">
          <mxGeometry relative="1" as="geometry" />
        </mxCell>
        <mxCell id="PrTmcTb1Di3HVmhfcGkv-7" value="Click on upload button" style="rounded=1;whiteSpace=wrap;html=1;absoluteArcSize=1;arcSize=14;strokeWidth=2;fillColor=#dae8fc;strokeColor=#6c8ebf;" parent="1" vertex="1">
          <mxGeometry x="110" y="350" width="100" height="70" as="geometry" />
        </mxCell>
        <mxCell id="PrTmcTb1Di3HVmhfcGkv-15" style="edgeStyle=orthogonalEdgeStyle;rounded=0;orthogonalLoop=1;jettySize=auto;html=1;entryX=0;entryY=0.5;entryDx=0;entryDy=0;" parent="1" source="PrTmcTb1Di3HVmhfcGkv-9" target="PrTmcTb1Di3HVmhfcGkv-14" edge="1">
          <mxGeometry relative="1" as="geometry" />
        </mxCell>
        <mxCell id="PrTmcTb1Di3HVmhfcGkv-9" value="Upload modal" style="shape=parallelogram;html=1;strokeWidth=2;perimeter=parallelogramPerimeter;whiteSpace=wrap;rounded=1;arcSize=12;size=0.23;fillColor=#fff2cc;strokeColor=#d6b656;" parent="1" vertex="1">
          <mxGeometry x="100" y="470" width="120" height="65" as="geometry" />
        </mxCell>
        <mxCell id="PrTmcTb1Di3HVmhfcGkv-17" style="edgeStyle=orthogonalEdgeStyle;rounded=0;orthogonalLoop=1;jettySize=auto;html=1;" parent="1" source="PrTmcTb1Di3HVmhfcGkv-14" target="PrTmcTb1Di3HVmhfcGkv-16" edge="1">
          <mxGeometry relative="1" as="geometry" />
        </mxCell>
        <mxCell id="PrTmcTb1Di3HVmhfcGkv-14" value="Select the service users to upload the files for" style="rounded=1;whiteSpace=wrap;html=1;absoluteArcSize=1;arcSize=14;strokeWidth=2;fillColor=#dae8fc;strokeColor=#6c8ebf;" parent="1" vertex="1">
          <mxGeometry x="290" y="150" width="100" height="100" as="geometry" />
        </mxCell>
        <mxCell id="PrTmcTb1Di3HVmhfcGkv-19" style="edgeStyle=orthogonalEdgeStyle;rounded=0;orthogonalLoop=1;jettySize=auto;html=1;" parent="1" source="PrTmcTb1Di3HVmhfcGkv-16" target="PrTmcTb1Di3HVmhfcGkv-18" edge="1">
          <mxGeometry relative="1" as="geometry" />
        </mxCell>
        <mxCell id="PrTmcTb1Di3HVmhfcGkv-16" value="Click the upload zone to select files or drag the files onto it" style="rounded=1;whiteSpace=wrap;html=1;absoluteArcSize=1;arcSize=14;strokeWidth=2;fillColor=#dae8fc;strokeColor=#6c8ebf;" parent="1" vertex="1">
          <mxGeometry x="290" y="300" width="100" height="100" as="geometry" />
        </mxCell>
        <mxCell id="PrTmcTb1Di3HVmhfcGkv-26" value="NO" style="edgeStyle=orthogonalEdgeStyle;rounded=0;orthogonalLoop=1;jettySize=auto;html=1;entryX=0;entryY=0.5;entryDx=0;entryDy=0;" parent="1" source="PrTmcTb1Di3HVmhfcGkv-18" target="PrTmcTb1Di3HVmhfcGkv-25" edge="1">
          <mxGeometry relative="1" as="geometry">
            <Array as="points">
              <mxPoint x="430" y="480" />
              <mxPoint x="430" y="200" />
            </Array>
          </mxGeometry>
        </mxCell>
        <mxCell id="PrTmcTb1Di3HVmhfcGkv-18" value="The file is more than 500MB" style="strokeWidth=2;html=1;shape=mxgraph.flowchart.decision;whiteSpace=wrap;fillColor=#e1d5e7;strokeColor=#9673a6;" parent="1" vertex="1">
          <mxGeometry x="290" y="430" width="100" height="100" as="geometry" />
        </mxCell>
        <mxCell id="PrTmcTb1Di3HVmhfcGkv-20" value="Error: Please select file under 500MB" style="strokeWidth=2;html=1;shape=mxgraph.flowchart.document2;whiteSpace=wrap;size=0.25;fillColor=#f5f5f5;fontColor=#333333;strokeColor=#666666;" parent="1" vertex="1">
          <mxGeometry x="290" y="590" width="100" height="70" as="geometry" />
        </mxCell>
        <mxCell id="PrTmcTb1Di3HVmhfcGkv-21" value="YES" style="edgeStyle=orthogonalEdgeStyle;rounded=0;orthogonalLoop=1;jettySize=auto;html=1;entryX=0.5;entryY=0;entryDx=0;entryDy=0;entryPerimeter=0;" parent="1" source="PrTmcTb1Di3HVmhfcGkv-18" target="PrTmcTb1Di3HVmhfcGkv-20" edge="1">
          <mxGeometry relative="1" as="geometry" />
        </mxCell>
        <mxCell id="PrTmcTb1Di3HVmhfcGkv-25" value="The upload items&amp;nbsp;&lt;br&gt;with uploading progress" style="shape=parallelogram;html=1;strokeWidth=2;perimeter=parallelogramPerimeter;whiteSpace=wrap;rounded=1;arcSize=12;size=0.23;fillColor=#fff2cc;strokeColor=#d6b656;" parent="1" vertex="1">
          <mxGeometry x="460" y="170" width="200" height="60" as="geometry" />
        </mxCell>
        <mxCell id="PrTmcTb1Di3HVmhfcGkv-27" value="Upload failed?" style="strokeWidth=2;html=1;shape=mxgraph.flowchart.decision;whiteSpace=wrap;fillColor=#e1d5e7;strokeColor=#9673a6;" parent="1" vertex="1">
          <mxGeometry x="680" y="290" width="100" height="100" as="geometry" />
        </mxCell>
        <mxCell id="PrTmcTb1Di3HVmhfcGkv-29" value="Error: Failed to upload" style="strokeWidth=2;html=1;shape=mxgraph.flowchart.document2;whiteSpace=wrap;size=0.25;fillColor=#f5f5f5;fontColor=#333333;strokeColor=#666666;" parent="1" vertex="1">
          <mxGeometry x="780" y="230" width="100" height="60" as="geometry" />
        </mxCell>
        <mxCell id="UtEviaRXFZuZ-_orraku-21" value="NO" style="edgeStyle=orthogonalEdgeStyle;rounded=0;orthogonalLoop=1;jettySize=auto;html=1;" edge="1" parent="1" source="PrTmcTb1Di3HVmhfcGkv-31" target="UtEviaRXFZuZ-_orraku-19">
          <mxGeometry relative="1" as="geometry" />
        </mxCell>
        <mxCell id="UtEviaRXFZuZ-_orraku-23" value="YES" style="edgeStyle=orthogonalEdgeStyle;rounded=0;orthogonalLoop=1;jettySize=auto;html=1;entryX=1;entryY=0.5;entryDx=0;entryDy=0;" edge="1" parent="1" source="PrTmcTb1Di3HVmhfcGkv-31" target="PrTmcTb1Di3HVmhfcGkv-25">
          <mxGeometry relative="1" as="geometry">
            <Array as="points">
              <mxPoint x="990" y="200" />
            </Array>
          </mxGeometry>
        </mxCell>
        <mxCell id="PrTmcTb1Di3HVmhfcGkv-31" value="Retry?" style="strokeWidth=2;html=1;shape=mxgraph.flowchart.decision;whiteSpace=wrap;fillColor=#e1d5e7;strokeColor=#9673a6;" parent="1" vertex="1">
          <mxGeometry x="940" y="290" width="100" height="100" as="geometry" />
        </mxCell>
        <mxCell id="UtEviaRXFZuZ-_orraku-5" value="YES" style="edgeStyle=orthogonalEdgeStyle;rounded=0;orthogonalLoop=1;jettySize=auto;html=1;" edge="1" parent="1" source="UtEviaRXFZuZ-_orraku-3" target="UtEviaRXFZuZ-_orraku-4">
          <mxGeometry relative="1" as="geometry" />
        </mxCell>
        <mxCell id="UtEviaRXFZuZ-_orraku-11" value="NO" style="edgeStyle=orthogonalEdgeStyle;rounded=0;orthogonalLoop=1;jettySize=auto;html=1;" edge="1" parent="1" source="UtEviaRXFZuZ-_orraku-3" target="PrTmcTb1Di3HVmhfcGkv-27">
          <mxGeometry relative="1" as="geometry" />
        </mxCell>
        <mxCell id="UtEviaRXFZuZ-_orraku-3" value="Cancel the process?" style="strokeWidth=2;html=1;shape=mxgraph.flowchart.decision;whiteSpace=wrap;fillColor=#e1d5e7;strokeColor=#9673a6;" vertex="1" parent="1">
          <mxGeometry x="510" y="290" width="100" height="100" as="geometry" />
        </mxCell>
        <mxCell id="UtEviaRXFZuZ-_orraku-10" style="edgeStyle=orthogonalEdgeStyle;rounded=0;orthogonalLoop=1;jettySize=auto;html=1;entryX=0.5;entryY=0;entryDx=0;entryDy=0;" edge="1" parent="1" source="UtEviaRXFZuZ-_orraku-4" target="UtEviaRXFZuZ-_orraku-7">
          <mxGeometry relative="1" as="geometry" />
        </mxCell>
        <mxCell id="UtEviaRXFZuZ-_orraku-4" value="The upload item is removed" style="shape=parallelogram;html=1;strokeWidth=2;perimeter=parallelogramPerimeter;whiteSpace=wrap;rounded=1;arcSize=12;size=0.23;fillColor=#fff2cc;strokeColor=#d6b656;" vertex="1" parent="1">
          <mxGeometry x="485" y="445" width="150" height="70" as="geometry" />
        </mxCell>
        <mxCell id="UtEviaRXFZuZ-_orraku-6" style="edgeStyle=orthogonalEdgeStyle;rounded=0;orthogonalLoop=1;jettySize=auto;html=1;entryX=0.5;entryY=0;entryDx=0;entryDy=0;entryPerimeter=0;" edge="1" parent="1" source="PrTmcTb1Di3HVmhfcGkv-25" target="UtEviaRXFZuZ-_orraku-3">
          <mxGeometry relative="1" as="geometry" />
        </mxCell>
        <mxCell id="UtEviaRXFZuZ-_orraku-7" value="The file is not added in the list" style="shape=parallelogram;html=1;strokeWidth=2;perimeter=parallelogramPerimeter;whiteSpace=wrap;rounded=1;arcSize=12;size=0.23;fillColor=#fff2cc;strokeColor=#d6b656;" vertex="1" parent="1">
          <mxGeometry x="431.25" y="570" width="257.5" height="60" as="geometry" />
        </mxCell>
        <mxCell id="UtEviaRXFZuZ-_orraku-13" value="YES" style="edgeStyle=orthogonalEdgeStyle;rounded=0;orthogonalLoop=1;jettySize=auto;html=1;entryX=0;entryY=0.5;entryDx=0;entryDy=0;entryPerimeter=0;" edge="1" parent="1" source="PrTmcTb1Di3HVmhfcGkv-27" target="PrTmcTb1Di3HVmhfcGkv-29">
          <mxGeometry relative="1" as="geometry" />
        </mxCell>
        <mxCell id="UtEviaRXFZuZ-_orraku-14" value="YES" style="edgeStyle=orthogonalEdgeStyle;rounded=0;orthogonalLoop=1;jettySize=auto;html=1;entryX=0;entryY=0.5;entryDx=0;entryDy=0;entryPerimeter=0;" edge="1" parent="1" source="PrTmcTb1Di3HVmhfcGkv-27" target="PrTmcTb1Di3HVmhfcGkv-31">
          <mxGeometry relative="1" as="geometry" />
        </mxCell>
        <mxCell id="UtEviaRXFZuZ-_orraku-31" style="edgeStyle=orthogonalEdgeStyle;rounded=0;orthogonalLoop=1;jettySize=auto;html=1;entryX=0;entryY=0.5;entryDx=0;entryDy=0;" edge="1" parent="1" source="UtEviaRXFZuZ-_orraku-17" target="UtEviaRXFZuZ-_orraku-27">
          <mxGeometry relative="1" as="geometry" />
        </mxCell>
        <mxCell id="UtEviaRXFZuZ-_orraku-17" value="The upload item is marked done" style="shape=parallelogram;html=1;strokeWidth=2;perimeter=parallelogramPerimeter;whiteSpace=wrap;rounded=1;arcSize=12;size=0.23;fillColor=#fff2cc;strokeColor=#d6b656;" vertex="1" parent="1">
          <mxGeometry x="650" y="455" width="220" height="60" as="geometry" />
        </mxCell>
        <mxCell id="UtEviaRXFZuZ-_orraku-18" value="NO" style="edgeStyle=orthogonalEdgeStyle;rounded=0;orthogonalLoop=1;jettySize=auto;html=1;entryX=0.362;entryY=0.017;entryDx=0;entryDy=0;entryPerimeter=0;" edge="1" parent="1" source="PrTmcTb1Di3HVmhfcGkv-27" target="UtEviaRXFZuZ-_orraku-17">
          <mxGeometry relative="1" as="geometry" />
        </mxCell>
        <mxCell id="UtEviaRXFZuZ-_orraku-33" value="YES" style="edgeStyle=orthogonalEdgeStyle;rounded=0;orthogonalLoop=1;jettySize=auto;html=1;entryX=1;entryY=0.5;entryDx=0;entryDy=0;" edge="1" parent="1" source="UtEviaRXFZuZ-_orraku-19" target="UtEviaRXFZuZ-_orraku-22">
          <mxGeometry relative="1" as="geometry">
            <Array as="points">
              <mxPoint x="1200" y="600" />
            </Array>
          </mxGeometry>
        </mxCell>
        <mxCell id="UtEviaRXFZuZ-_orraku-19" value="Clear the upload item?" style="strokeWidth=2;html=1;shape=mxgraph.flowchart.decision;whiteSpace=wrap;fillColor=#e1d5e7;strokeColor=#9673a6;" vertex="1" parent="1">
          <mxGeometry x="1150" y="435" width="100" height="100" as="geometry" />
        </mxCell>
        <mxCell id="UtEviaRXFZuZ-_orraku-22" value="The upload item is removed" style="shape=parallelogram;html=1;strokeWidth=2;perimeter=parallelogramPerimeter;whiteSpace=wrap;rounded=1;arcSize=12;size=0.23;fillColor=#fff2cc;strokeColor=#d6b656;" vertex="1" parent="1">
          <mxGeometry x="860" y="570" width="210" height="60" as="geometry" />
        </mxCell>
        <mxCell id="UtEviaRXFZuZ-_orraku-26" value="End" style="strokeWidth=2;html=1;shape=mxgraph.flowchart.start_1;whiteSpace=wrap;fillColor=#f8cecc;strokeColor=#b85450;" vertex="1" parent="1">
          <mxGeometry x="510" y="680" width="100" height="60" as="geometry" />
        </mxCell>
        <mxCell id="UtEviaRXFZuZ-_orraku-27" value="The file is added in the list" style="shape=parallelogram;html=1;strokeWidth=2;perimeter=parallelogramPerimeter;whiteSpace=wrap;rounded=1;arcSize=12;size=0.23;fillColor=#fff2cc;strokeColor=#d6b656;" vertex="1" parent="1">
          <mxGeometry x="900" y="455" width="210" height="60" as="geometry" />
        </mxCell>
        <mxCell id="UtEviaRXFZuZ-_orraku-32" style="edgeStyle=orthogonalEdgeStyle;rounded=0;orthogonalLoop=1;jettySize=auto;html=1;entryX=0;entryY=0.5;entryDx=0;entryDy=0;entryPerimeter=0;" edge="1" parent="1" source="UtEviaRXFZuZ-_orraku-27" target="UtEviaRXFZuZ-_orraku-19">
          <mxGeometry relative="1" as="geometry" />
        </mxCell>
        <mxCell id="UtEviaRXFZuZ-_orraku-34" value="NO" style="edgeStyle=orthogonalEdgeStyle;rounded=0;orthogonalLoop=1;jettySize=auto;html=1;entryX=1;entryY=0.5;entryDx=0;entryDy=0;entryPerimeter=0;" edge="1" parent="1" source="UtEviaRXFZuZ-_orraku-19" target="UtEviaRXFZuZ-_orraku-26">
          <mxGeometry relative="1" as="geometry">
            <Array as="points">
              <mxPoint x="1200" y="710" />
            </Array>
          </mxGeometry>
        </mxCell>
        <mxCell id="UtEviaRXFZuZ-_orraku-35" style="edgeStyle=orthogonalEdgeStyle;rounded=0;orthogonalLoop=1;jettySize=auto;html=1;entryX=1;entryY=0.5;entryDx=0;entryDy=0;entryPerimeter=0;" edge="1" parent="1" source="UtEviaRXFZuZ-_orraku-22" target="UtEviaRXFZuZ-_orraku-26">
          <mxGeometry relative="1" as="geometry" />
        </mxCell>
        <mxCell id="UtEviaRXFZuZ-_orraku-36" style="edgeStyle=orthogonalEdgeStyle;rounded=0;orthogonalLoop=1;jettySize=auto;html=1;entryX=0.5;entryY=0;entryDx=0;entryDy=0;entryPerimeter=0;" edge="1" parent="1" source="UtEviaRXFZuZ-_orraku-7" target="UtEviaRXFZuZ-_orraku-26">
          <mxGeometry relative="1" as="geometry" />
        </mxCell>
        <mxCell id="UtEviaRXFZuZ-_orraku-37" style="edgeStyle=orthogonalEdgeStyle;rounded=0;orthogonalLoop=1;jettySize=auto;html=1;entryX=0;entryY=0.5;entryDx=0;entryDy=0;entryPerimeter=0;" edge="1" parent="1" source="PrTmcTb1Di3HVmhfcGkv-20" target="UtEviaRXFZuZ-_orraku-26">
          <mxGeometry relative="1" as="geometry">
            <Array as="points">
              <mxPoint x="340" y="710" />
            </Array>
          </mxGeometry>
        </mxCell>
        <mxCell id="UtEviaRXFZuZ-_orraku-42" value="" style="swimlane;startSize=0;" vertex="1" parent="1">
          <mxGeometry x="80" y="130" width="1190" height="620" as="geometry" />
        </mxCell>
      </root>
    </mxGraphModel>
  </diagram>
</mxfile>
